<?xml version="1.0" encoding="UTF-8"?>
<svg version="1.1" xmlns="http://www.w3.org/2000/svg" width="64" height="64">
<path d="M0 0 C21.12 0 42.24 0 64 0 C64 21.12 64 42.24 64 64 C42.88 64 21.76 64 0 64 C0 42.88 0 21.76 0 0 Z " fill="#FDFEFE" transform="translate(0,0)"/>
<path d="M0 0 C0.69029297 -0.01611328 1.38058594 -0.03222656 2.09179688 -0.04882812 C6.83737557 -0.0533263 10.03982814 0.81689855 14.0625 3.3125 C17.51634444 7.03901637 18.29851162 9.74260863 18.3125 14.6875 C18.24879371 16.23010237 18.17206696 17.77247544 18.0625 19.3125 C18.67609375 19.59222656 19.2896875 19.87195313 19.921875 20.16015625 C23.29662077 21.97685333 24.37352116 23.87422164 26.0625 27.3125 C27.09923917 33.06728097 26.88857172 37.88700581 23.5625 42.8125 C19.0812121 47.8513675 14.83814998 49.08432482 8.30859375 49.62109375 C0.8031079 49.94602962 -6.67512059 50.00928456 -12.9375 45.3125 C-18.55578365 38.43010253 -18.21013447 32.13529819 -18.3125 23.625 C-18.34988281 22.46548828 -18.38726562 21.30597656 -18.42578125 20.11132812 C-18.49853947 13.00123274 -18.05541649 7.59004483 -12.9375 2.3125 C-8.96273989 -0.22786101 -4.60203191 -0.02136505 0 0 Z " fill="#28A9EF" transform="translate(31.9375,7.6875)"/>
<path d="M0 0 C0.69029297 -0.01611328 1.38058594 -0.03222656 2.09179688 -0.04882812 C6.8247259 -0.05331431 10.05633616 0.80334443 14.0625 3.3125 C15.4375 5.5 15.4375 5.5 16.0625 7.3125 C13.0625 6.3125 13.0625 6.3125 11.5625 4.75 C10.04777194 2.96654732 10.04777194 2.96654732 7.0625 3.3125 C7.0625 2.9825 7.0625 2.6525 7.0625 2.3125 C5.0002952 2.258152 2.93767184 2.21955039 0.875 2.1875 C-0.27355469 2.16429687 -1.42210938 2.14109375 -2.60546875 2.1171875 C-7.00664487 2.37516969 -9.78398438 3.32377232 -13.125 6.1875 C-15.86956532 10.91950918 -16.28590295 15.93682434 -16.9375 21.3125 C-16.339375 20.796875 -15.74125 20.28125 -15.125 19.75 C-14.403125 19.275625 -13.68125 18.80125 -12.9375 18.3125 C-11.9475 18.6425 -10.9575 18.9725 -9.9375 19.3125 C-10.700625 20.055 -11.46375 20.7975 -12.25 21.5625 C-14.38427433 23.74640862 -16.14978768 25.8589828 -17.9375 28.3125 C-18.83956186 9.5496134 -18.83956186 9.5496134 -14.51953125 3.625 C-10.18565778 0.02949016 -5.40806963 -0.0251071 0 0 Z " fill="#0966ED" transform="translate(31.9375,7.6875)"/>
</svg>
