<?xml version="1.0" encoding="UTF-8"?>
<svg xmlns="http://www.w3.org/2000/svg" viewBox="0 0 1095 1095" width="1095" height="1095">
<path d="M775 374.5C775 422.5 775 470.5 775 518.5C740.91 534.1 709.56 554.17 676.88 572.39C673.19 574.45 668.93 574.45 665.35 576.5C664.29 579.06 664.2 580.79 664.84 583.5C701.44 603.83 738.03 624.17 774.63 644.5C776.09 690.17 777.56 735.83 779.03 781.5C701.19 827.12 623.34 872.73 545.5 918.35C468.95 875.4 392.4 832.45 315.85 789.5C315.85 742.75 315.85 695.99 315.85 649.24C430.28 716.48 544.71 783.73 659.14 850.97C659.14 806.91 659.14 762.85 659.14 718.79C583.44 674.69 507.74 630.6 432.03 586.5C432.03 539.83 432.03 493.17 432.03 446.5C507.52 489.39 583.01 532.28 658.5 575.17C659.93 569.32 659.15 562.58 659.15 556.5C659.15 544.83 659.15 533.17 659.15 521.5C659.15 506.83 659.15 492.17 659.15 477.5C659.15 470.59 658.56 463.38 659.16 456.5C659.51 452.61 662.74 450.63 662.81 446.5C657.86 440.74 645.45 434.99 638.57 430.96C621.57 421.01 604.48 411.12 587.7 400.82C555.16 380.86 521.98 361.91 489.19 342.35C470.27 331.07 451.6 318.59 432.04 308.5C432.04 264.5 432.04 220.5 432.04 176.5C546.36 242.5 660.68 308.5 775 374.5Z" fill="#10a37f" fill-rule="evenodd" stroke="#10a37f" stroke-width="0.25" stroke-linejoin="round"/>
</svg>