<?xml version="1.0" encoding="UTF-8"?>
<svg version="1.1" xmlns="http://www.w3.org/2000/svg" width="64" height="64">
<path d="M0 0 C3.94511717 2.82482435 6.8712491 5.79727146 9.55859375 9.83203125 C9.99042969 10.47527344 10.42226563 11.11851563 10.8671875 11.78125 C14.68588784 18.71833539 14.78602541 27.14624419 13.55859375 34.83203125 C11.03139985 42.98545974 6.65352587 49.10646422 -0.44140625 53.83203125 C-1.08464844 54.26386719 -1.72789063 54.69570313 -2.390625 55.140625 C-9.32771039 58.95932534 -17.75561919 59.05946291 -25.44140625 57.83203125 C-33.59483474 55.30483735 -39.71583922 50.92696337 -44.44140625 43.83203125 C-44.87324219 43.18878906 -45.30507813 42.54554687 -45.75 41.8828125 C-49.56870034 34.94572711 -49.66883791 26.51781831 -48.44140625 18.83203125 C-45.91421235 10.67860276 -41.53633837 4.55759828 -34.44140625 -0.16796875 C-33.47654297 -0.81572266 -33.47654297 -0.81572266 -32.4921875 -1.4765625 C-22.43953763 -7.01030691 -9.60808708 -5.5666936 0 0 Z " fill="#8937D9" transform="translate(49.44140625,5.16796875)"/>
<path d="M0 0 C0.54059682 4.12455354 0.77173552 7.89624424 0 12 C-2.52845381 14.99848689 -5.26942986 16.79601631 -9 18 C-13.49358974 17.50641026 -13.49358974 17.50641026 -15 16 C-15.04063832 14.33382885 -15.042721 12.66611905 -15 11 C-13.6696875 11.309375 -13.6696875 11.309375 -12.3125 11.625 C-8.7747289 12.02550239 -7.13367033 11.56683516 -4 10 C-4.22286968 4.90411757 -4.22286968 4.90411757 -7.125 0.9375 C-10.96710657 -0.31536084 -13.22330248 0.79589997 -17 2 C-16.94763184 2.57443848 -16.89526367 3.14887695 -16.84130859 3.74072266 C-15.56636988 19.75976271 -15.56636988 19.75976271 -18.83984375 24.875 C-21.71195253 26.9077089 -23.48330728 27.7212661 -27 28 C-31.16485524 26.64132702 -34.49333113 24.60000163 -38 22 C-38.54059682 17.87544646 -38.77173552 14.10375576 -38 10 C-35.47154619 7.00151311 -32.73057014 5.20398369 -29 4 C-24.50641026 4.49358974 -24.50641026 4.49358974 -23 6 C-22.95936168 7.66617115 -22.957279 9.33388095 -23 11 C-24.3303125 10.690625 -24.3303125 10.690625 -25.6875 10.375 C-29.2252711 9.97449761 -30.86632967 10.43316484 -34 12 C-33.77713032 17.09588243 -33.77713032 17.09588243 -30.875 21.0625 C-27.03289343 22.31536084 -24.77669752 21.20410003 -21 20 C-21.05236816 19.42556152 -21.10473633 18.85112305 -21.15869141 18.25927734 C-22.43363012 2.24023729 -22.43363012 2.24023729 -19.16015625 -2.875 C-11.8469644 -8.0508451 -6.57880997 -4.87782488 0 0 Z " fill="#FEFDFE" transform="translate(51,21)"/>
</svg>
